HIERARCHY
ROOT hip
{
	OFFSET 0.000000 0.000000 0.000000 
	CHANNELS 6 Xposition Yposition Zposition Xrotation Zrotation Yrotation
	JOINT abdomen
	{
		OFFSET 0.000000 3.402643 0.000000 
		CHANNELS 3 Xrotation Zrotation Yrotation
		JOINT chest
		{
			OFFSET 0.000000 8.438565 -0.680529 
			CHANNELS 3 Xrotation Zrotation Yrotation
			JOINT neck
			{
				OFFSET 0.000000 10.207942 -0.272212 
				CHANNELS 3 Xrotation Zrotation Yrotation
				JOINT head
				{
					OFFSET 0.000000 3.130431 0.000000 
					CHANNELS 3 Xrotation Zrotation Yrotation
					End Site
					{
						OFFSET 0.000000 3.130435 0.000000 
					}
				}
			}
			JOINT lCollar
			{
				OFFSET 3.470700 6.669187 -0.816635 
				CHANNELS 3 Zrotation Yrotation Xrotation
				JOINT lShldr
				{
					OFFSET 3.198488 0.000000 0.000000 
					CHANNELS 3 Zrotation Yrotation Xrotation
					JOINT lForeArm
					{
						OFFSET 10.139888 0.000000 0.000000 
						CHANNELS 3 Yrotation Zrotation Xrotation
						JOINT lHand
						{
							OFFSET 8.370511 0.000000 0.000000 
							CHANNELS 3 Zrotation Yrotation Xrotation
							End Site
							{
								OFFSET 4.083176 0.000000 0.000000 
							}
						}
					}
				}
			}
			JOINT rCollar
			{
				OFFSET -3.470700 6.669187 -0.816635 
				CHANNELS 3 Zrotation Yrotation Xrotation
				JOINT rShldr
				{
					OFFSET -3.198488 0.000000 0.000000 
					CHANNELS 3 Zrotation Yrotation Xrotation
					JOINT rForeArm
					{
						OFFSET -10.139888 0.000000 0.000000 
						CHANNELS 3 Yrotation Zrotation Xrotation
						JOINT rHand
						{
							OFFSET -8.370511 0.000000 0.000000 
							CHANNELS 3 Zrotation Yrotation Xrotation
							End Site
							{
								OFFSET -4.083176 0.000000 0.000000 
							}
						}
					}
				}
			}
		}
	}
	JOINT lThigh
	{
		OFFSET 5.308129 -1.633274 1.361059 
		CHANNELS 3 Xrotation Zrotation Yrotation
		JOINT lShin
		{
			OFFSET -2.041588 -20.007561 0.000000 
			CHANNELS 3 Xrotation Zrotation Yrotation
			JOINT lFoot
			{
				OFFSET 0.000000 -19.190928 -1.224953 
				CHANNELS 3 Xrotation Yrotation Zrotation
				End Site
				{
					OFFSET 0.000000 -2.449906 4.627600 
				}
			}
		}
	}
	JOINT rThigh
	{
		OFFSET -5.308129 -1.633274 1.361059 
		CHANNELS 3 Xrotation Zrotation Yrotation
		JOINT rShin
		{
			OFFSET 2.041588 -20.007561 0.000000 
			CHANNELS 3 Xrotation Zrotation Yrotation
			JOINT rFoot
			{
				OFFSET 0.000000 -19.190928 -1.224953 
				CHANNELS 3 Xrotation Yrotation Zrotation
				End Site
				{
					OFFSET 0.000000 -2.449906 4.627600 
				}
			}
		}
	}
}
MOTION
Frames: 8
Frame Time: 0.016667
-0.488153 52.355438 0.474583 -10.789471 -1.639633 1.992769 27.826565 0.803880 0.139516 0.589739 2.947400 -3.078531 -1.974269 -2.953677 0.061497 17.994366 -0.389784 -3.759879 -14.900582 -9.765585 1.809679 -61.818726 -9.271229 8.865746 -51.270752 -5.000000 13.703751 13.642467 0.270348 45.000000 13.128722 10.073351 1.636037 64.571846 16.394407 23.643873 44.349411 5.000000 13.782892 -28.518461 0.934145 44.118599 19.528782 19.959776 10.893076 3.715616 -6.909389 -0.757190 -5.354930 5.267632 -9.240146 20.596720 -7.957942 -16.129692 3.268615 2.085884 0.107154 -6.296556 -6.104313 9.764213 
-0.488244 52.356697 0.460684 -10.780102 -1.659162 1.983004 27.836660 0.795778 0.137291 0.610101 2.966971 -3.049271 -0.906824 -2.981744 0.006052 19.688158 -0.555222 -4.092078 -14.898097 -9.749222 1.795429 -61.854424 -9.356239 8.977671 -51.440182 -5.000000 13.409535 13.441431 0.202494 45.000000 13.098993 10.092565 1.627799 64.503571 16.532755 23.750122 44.441864 5.000000 13.748459 -28.609217 0.749582 43.996716 19.469772 19.959023 10.916266 3.766004 -6.893053 -0.790951 -5.349767 5.322236 -9.227726 20.562025 -7.938707 -16.124054 3.286643 2.074451 0.137389 -6.306708 -6.106936 9.773455 
-0.488333 52.357964 0.446788 -10.760961 -1.678692 1.973240 27.846981 0.795882 0.138876 0.630150 2.996304 -3.020011 0.170442 -3.019464 -0.047426 21.382603 -0.701011 -4.443742 -14.898855 -9.727837 1.799783 -61.898731 -9.448188 9.088455 -51.607731 -5.000000 13.116588 13.242675 0.148907 45.000000 13.080348 10.121571 1.648374 64.435646 16.671005 23.836840 44.534328 5.000000 13.711422 -28.699980 0.577862 43.871605 19.436001 19.976152 10.938134 3.793005 -6.889309 -0.813306 -5.358877 5.292581 -9.250943 20.512142 -7.929062 -16.101295 3.304996 2.064387 0.118829 -6.291618 -6.088407 9.770717 
-0.489686 52.359226 0.432900 -10.731092 -1.678712 1.953717 27.875992 0.786443 0.134449 0.651364 2.976818 -2.990742 1.178801 -2.997788 -0.100022 22.668247 -0.846672 -4.766259 -14.888968 -9.728143 1.798637 -61.922398 -9.503181 9.160332 -51.741188 -5.000000 12.896996 13.121942 0.097238 45.000000 13.080348 10.121571 1.648374 64.375580 16.956779 24.157263 44.562981 5.000000 13.569193 -28.519413 0.165082 43.861858 19.377214 19.975681 10.921176 3.820371 -6.885410 -0.777172 -5.301061 5.279362 -9.247023 20.457447 -7.929742 -16.080730 3.334573 2.072315 0.120563 -6.289283 -6.093687 9.757550 
-0.491040 52.360493 0.419012 -10.711274 -1.678721 1.943956 27.885914 0.782631 0.143363 0.671732 2.967075 -2.961459 2.187116 -2.976110 -0.152619 23.954838 -0.982427 -5.098413 -14.868756 -9.719315 1.793875 -61.955360 -9.569698 9.239682 -51.863594 -5.000000 12.684055 13.009130 0.047862 45.000000 13.080235 10.131336 1.648410 64.325447 17.252190 24.474794 44.593143 5.000000 13.420302 -28.338511 -0.252364 43.841137 19.332573 19.988852 10.938121 3.852803 -6.900887 -0.789961 -5.280947 5.239742 -9.243098 20.393148 -7.928899 -16.070524 3.356010 2.056131 0.121517 -6.288826 -6.094865 9.758072 
-0.492389 52.361752 0.405884 -10.691827 -1.698261 1.924430 27.924829 0.778240 0.151216 0.692096 2.957332 -2.961473 3.097798 -2.973742 -0.202803 25.013224 -1.079259 -5.352634 -14.848550 -9.710485 1.789120 -61.986103 -9.622548 9.291634 -51.941349 -5.000000 12.552004 12.968914 0.045319 45.000000 13.050621 10.140785 1.640136 64.303413 17.626020 24.931667 44.568451 5.000000 13.197125 -28.033802 -0.827757 43.935154 19.290512 19.985910 10.963496 3.879023 -6.886126 -0.792668 -5.277747 5.289533 -9.242649 20.338400 -7.929574 -16.049963 3.384594 2.065546 0.123250 -6.294950 -6.074949 9.755574 
-0.493735 52.363018 0.393259 -10.672333 -1.708031 1.914667 27.963751 0.774037 0.159173 0.711300 2.967092 -2.971238 3.949416 -2.979570 -0.241377 25.911238 -1.137227 -5.548105 -14.837804 -9.691909 1.783047 -62.023323 -9.686474 9.327837 -51.991093 -5.000000 12.480478 12.985355 0.062571 45.000000 13.031068 10.160086 1.641171 64.310089 18.058519 25.476294 44.511765 5.000000 12.909648 -27.645931 -1.498787 44.083431 19.245928 19.999203 10.960364 3.911181 -6.890465 -0.766309 -5.279657 5.279982 -9.225614 20.288841 -7.919138 -16.026981 3.420612 2.062632 0.125346 -6.284011 -6.108073 9.741088 
-0.495332 52.364285 0.380634 -10.653159 -1.727561 1.904903 28.002693 0.761365 0.163975 0.740270 2.976852 -2.981003 4.761928 -2.975742 -0.281411 26.740885 -1.195184 -5.724055 -14.816415 -9.695014 1.771461 -62.063103 -9.733107 9.372949 -52.024845 -5.000000 12.428930 13.047682 0.120066 45.000000 13.012138 10.169593 1.651921 64.316490 18.530453 26.069483 44.442543 5.000000 12.594114 -27.241571 -2.188100 44.290764 19.205643 20.008242 10.978390 3.931344 -6.901486 -0.768387 -5.305791 5.292039 -9.198442 20.234884 -7.918400 -15.996873 3.446205 2.076497 0.136489 -6.270011 -6.086217 9.739933 
